{"title":"Helix S01E10 HDTV x264 AAC [GWC].mp4","uid":9724374,"size":106984199,"categoryP":"video","categoryS":"tv_shows","magnet":"?xt=urn:btih:f214b46a1c704d8496f4830fdb3e39d9f56e8bfc&amp;dn=Helix+S01E10+HDTV+x264+AAC+%5BGWC%5D.mp4&amp;tr=udp%3A%2F%2Ftracker.openbittorrent.com%3A80&amp;tr=udp%3A%2F%2Fopen.demonii.com%3A1337&amp;tr=udp%3A%2F%2Ftracker.coppersurfer.tk%3A6969&amp;tr=udp%3A%2F%2Fexodus.desync.com%3A6969","seeders":0,"leechers":1,"uploader":"canc232","files":1,"time":1394237351,"description":"Helix S01E10 HDTV x264 AAC [GWC]\n\n\nStoryline :\nA team of scientists are thrust into a potentially life-or-death situation in this thriller, which begins with the group being deployed to the Arctic to secretly investigate what could be a disease outbreak.\n\n\nSCREENS : &lt;a href=&quot;\nhttp://i.imgur.com/R9NPUYF.jpg&quot; rel=&quot;nofollow&quot; target=&quot;_NEW&quot;&gt;\nhttp://i.imgur.com/R9NPUYF.jpg&lt;/a&gt; &lt;a href=&quot;\nhttp://i.imgur.com/VpXmrep.jpg&quot; rel=&quot;nofollow&quot; target=&quot;_NEW&quot;&gt;\nhttp://i.imgur.com/VpXmrep.jpg&lt;/a&gt; &lt;a href=&quot;\nhttp://i.imgur.com/1WxCBCC.jpg&quot; rel=&quot;nofollow&quot; target=&quot;_NEW&quot;&gt;\nhttp://i.imgur.com/1WxCBCC.jpg&lt;/a&gt;\n\n\nMEDIA INFO :\nGeneral \nFormat : MPEG-4 \nFormat profile : Base Media \nFile size : 102 MiB \nDuration : 41mn 13s \nOverall bit rate mode : Variable \nOverall bit rate : 346 Kbps \n\nVideo \nFormat : AVC \nFormat profile : &lt;a class=&quot;__cf_email__&quot; href=&quot;/cdn-cgi/l/email-protection&quot; data-cfemail=&quot;652d0c020d2529564b55&quot;&gt;[email&amp;#160;protected]&lt;/a&gt;&lt;script cf-hash='f9e31' type=&quot;text/javascript&quot;&gt;\n/* &lt;![CDATA[ */!function(){try{var t=&quot;currentScript&quot;in document?document.currentScript:function(){for(var t=document.getElementsByTagName(&quot;script&quot;),e=t.length;e--;)if(t[e].getAttribute(&quot;cf-hash&quot;))return t[e]}();if(t&amp;&amp;t.previousSibling){var e,r,n,i,c=t.previousSibling,a=c.getAttribute(&quot;data-cfemail&quot;);if(a){for(e=&quot;&quot;,r=parseInt(a.substr(0,2),16),n=2;a.length-n;n+=2)i=parseInt(a.substr(n,2),16)^r,e+=String.fromCharCode(i);e=document.createTextNode(e),c.parentNode.replaceChild(e,c)}}}catch(u){}}();/* ]]&gt; */&lt;/script&gt; \nFormat settings, CABAC : Yes \nFormat settings, ReFrames : 4 frames \nDuration : 41mn 13s \nBit rate : 278 Kbps \nMaximum bit rate : 1 046 Kbps \nWidth : 720 pixels \nHeight : 404 pixels \nDisplay aspect ratio : 16:9 \nFrame rate : 23.976 fps \nStream size : 81.9 MiB (80%) \nTitle : Helix S01E10 HDTV x264 AAC GWC \nWriting library : x264 core \n\nAudio \nFormat : AAC \nFormat profile : HE-AAC / LC \nDuration : 41mn 13s \nBit rate mode : Variable \nChannel(s) : 2 channels \nSampling rate : 48.0 KHz / 24.0 KHz \nStream size : 19.2 MiB (19%) \nLanguage : English ","torrent":{"xt":"urn:btih:f214b46a1c704d8496f4830fdb3e39d9f56e8bfc","amp;dn":"Helix+S01E10+HDTV+x264+AAC+%5BGWC%5D.mp4","amp;tr":["udp%3A%2F%2Ftracker.openbittorrent.com%3A80","udp%3A%2F%2Fopen.demonii.com%3A1337","udp%3A%2F%2Ftracker.coppersurfer.tk%3A6969","udp%3A%2F%2Fexodus.desync.com%3A6969"],"infoHash":"f214b46a1c704d8496f4830fdb3e39d9f56e8bfc","infoHashBuffer":{"type":"Buffer","data":[242,20,180,106,28,112,77,132,150,244,131,15,219,62,57,217,245,110,139,252]},"announce":[],"urlList":[]}}